<svg width="300" height="68" xmlns="http://www.w3.org/2000/svg" viewBox="6.2 374 604.6 135" enable-background="new 6.2 374 604.6 135"><path fill="#fff" d="M31.4 377.9h-19.6v15.7h14.7v3.9h-14.7v21.6h-4.7v-45.1h24.3v3.9zm27.4-3.9c13 0 13.7 14.8 13.7 23.1 0 6 .4 23.1-13.7 23.1-13.7 0-13.7-16.8-13.7-23.1.1-18.6 6.2-23.1 13.7-23.1zm9 23c0-4.1.6-19.2-9-19.2-9.9 0-9 16.6-9 19.2 0 5.1-.3 19.2 9 19.2 4.6 0 9-3.1 9-19.2zm22-23h11.8c11.3 0 12.3 10.2 12.3 12.8 0 4.6-1.8 9-8 12.5l12.2 19.9h-5.7l-11-18.9-6.8.1v18.7h-4.7v-45.1h-.1zm9.2 22.5c6.4 0 10.2-3.3 10.2-10 0-6-2.5-8.6-10-8.6h-4.6v18.6h4.4zm59.1-22.5h4.6v45.3h-4.7v-34.5h-.1l-9.3 22.2-9.3-22.2-.1.1v34.3h-4.7v-45.2h4.6l9.5 22.6c0-.1 9.5-22.6 9.5-22.6zm43.5 3.9h-6.1v37.4h6.1v3.9h-17v-3.9h6.1v-37.4h-6.1v-3.9h17v3.9zm22.6-3.4h11.5c8.7 0 14.5 5 14.5 22.6 0 17.4-5.4 22.6-15.2 22.6h-10.8v-45.2zm4.7 41.1h5.8c6.5 0 10.8-1.8 10.8-18.6 0-17.3-5-18.6-11-18.6h-5.6v37.2zm65.8 3.6h-4.7l-3.7-12.2h-12.7l-3.7 12.2h-4.7l14.7-45.1 14.8 45.1zm-20-15.8h10.6l-5.3-16.8-5.3 16.8zm38.4 15.8v-44.7h9.4c5.1 0 14 .6 14 11.3 0 4.3-2.3 7.6-5.9 9.7 5.1 2.5 7.8 5.8 7.8 11.6 0 6.5-4.7 12.2-12.5 12.2h-12.8v-.1zm4.6-25.2h5.4c4.1 0 8.7-3.1 8.7-8.4 0-7.4-6.2-7.2-9.1-7.2h-5v15.6zm7.8 21.3c4.1 0 8.2-2.4 8.2-8 0-5-3.1-9.4-10.2-9.4h-5.8v17.4h7.8zm37.9 0h19.4v3.9h-24.1v-44.7h4.6c.1 0 .1 40.8.1 40.8zm62-36.9h-18.6v15.9h13.3v3.9h-13.3v17.1h19v3.9h-23.7v-44.7h23.3v3.9zm28.9 37.7h19.6v3.1h-22.6v-44.7h2.9v41.6zm66.4 3.1h-3.1l-3.9-13h-14.6l-3.9 13h-3.1l14.3-44.5 14.3 44.5zm-20.9-15.3h13.4l-6.8-21.6-6.6 21.6zm38.5 15.3v-44.7h10.9c6.5 0 11 4.1 11 10.9 0 4.9-2.8 8.2-7.1 10.2 5.8 1.7 9.2 5.8 9.2 11.8 0 6.4-4.1 11.8-11.2 11.8h-12.8zm7.5-24.5c7.6 0 11.6-3.7 11.6-9.5 0-4.8-2.1-8.3-9.5-8.3h-6.6v17.7l4.5.1zm4.8 22.1c3.6 0 8.8-2.7 8.8-9.2 0-5.4-3.8-10.3-10.4-10.3h-7.7v19.6h9.3v-.1zm52.9-35.7c-2.8-2.4-6-4.7-9.8-4.7-4.5 0-8.2 3.1-8.2 7.8 0 3.4 1.6 5.8 7 9.1l3.6 2.2c7 4.3 10.2 6.8 10.2 12.3 0 7.6-5 12.3-12.6 12.3-5.3 0-9.4-2.4-12.5-6.5l2.2-1.8c2.3 3.4 6 5.9 10.3 5.9 5.2 0 9.5-3.8 9.5-9.2 0-4.2-.5-5.8-8.7-10.7l-4.1-2.4c-4.3-2.5-8-5.5-8-10.8 0-6.6 5.1-10.5 11.5-10.5 4.2 0 8.3 2.2 11.3 5l-1.7 2z"/><g fill="#fff"><path d="M6.2 507.7v-72.7h34c15.8 0 24.4 10.7 24.4 23.4 0 12.6-8.7 23.4-24.4 23.4h-18.5v25.8h-15.5zm42.6-49.3c0-6.1-4.6-9.8-10.7-9.8h-16.4v19.6h16.5c6 0 10.6-3.8 10.6-9.8zM126.2 507.7l-14.3-25.8h-11.3v25.8h-15.5v-72.7h34c15.1 0 24.4 9.9 24.4 23.4 0 12.9-8.1 19.7-15.9 21.6l16.3 27.7h-17.7zm1.5-49.3c0-6.1-4.7-9.8-10.9-9.8h-16.2v19.6h16.2c6.2 0 10.9-3.7 10.9-9.8zM162.6 471.4c0-21.9 16-37.6 37.9-37.6 22 0 38 15.7 38 37.6 0 21.9-16 37.6-38 37.6-21.9 0-37.9-15.7-37.9-37.6zm60.1 0c0-13.6-8.7-23.9-22.1-23.9-13.4 0-22 10.2-22 23.9 0 13.5 8.6 23.9 22 23.9 13.3 0 22.1-10.4 22.1-23.9zM251.7 501.9l6.8-11.9c2.8 2.7 6.5 5.2 11.6 5.2 6.9 0 11.3-4.6 11.3-11.7v-48.5h15.5v48.8c0 17.2-10.7 25.2-25.6 25.2-7.4 0-14.4-2-19.6-7.1zM322.1 507.7v-72.7h51.4v13.6h-36v15.4h35.2v13.6h-35.2v16.5h36v13.6h-51.4zM393 471.4c0-22.3 16.9-37.6 38.7-37.6 16 0 25.3 8.7 30.4 17.8l-13.3 6.5c-3.1-5.9-9.6-10.6-17.1-10.6-13.2 0-22.8 10.1-22.8 23.9s9.6 23.9 22.8 23.9c7.5 0 14.1-4.6 17.1-10.6l13.3 6.4c-5.2 9-14.4 17.9-30.4 17.9-21.8 0-38.7-15.2-38.7-37.6zM499.1 507.7v-59.1h-21.3v-13.6h58v13.6h-21.1v59.1h-15.6zM551 497.5l8.4-11.8c5.1 5.3 13.1 9.8 23.1 9.8 8.5 0 12.6-3.9 12.6-8.1 0-12.9-41.9-4-41.9-31.4 0-12.1 10.5-22.1 27.6-22.1 11.6 0 21.1 3.5 28.3 10.1l-8.6 11.3c-5.9-5.4-13.7-8-21.1-8-6.6 0-10.4 2.9-10.4 7.3 0 11.6 41.7 3.8 41.7 31 0 13.3-9.5 23.3-29.1 23.3-13.8.1-23.9-4.6-30.6-11.4z"/></g></svg>
